<svg xmlns="http://www.w3.org/2000/svg" 
    xmlns:xlink="http://www.w3.org/1999/xlink" viewBox="0 0 219 252">
    <defs>
        <style>.a{fill:url(#a);}.b{fill:url(#b);}</style>
        <linearGradient id="a" x1="0.5" x2="0.5" y2="1" gradientUnits="objectBoundingBox">
            <stop offset="0" stop-color="#5dd8ff"/>
            <stop offset="1" stop-color="#54ffe8" stop-opacity="0"/>
        </linearGradient>
        <linearGradient id="b" x1="0.5" x2="0.5" y2="1" gradientUnits="objectBoundingBox">
            <stop offset="0" stop-color="#5dd8ff" stop-opacity="0.302"/>
            <stop offset="1" stop-color="#54ffe8" stop-opacity="0"/>
        </linearGradient>
    </defs>
    <g transform="translate(-1368 -162)">
        <path class="a" d="M24,0s5.822,22.815,12.834,44.25C41.3,57.912,48,70.943,48,77c0,15.295-10.745,24-24,24S0,92.352,0,77c0-5.957,6.335-17.78,10.833-31.6C17.733,24.192,24,0,24,0Z" transform="translate(1368 162)"/>
        <path class="b" d="M24,0s5.822,22.815,12.834,44.25C41.3,57.912,48,70.943,48,77c0,15.295-10.745,24-24,24S0,92.352,0,77c0-5.957,6.335-17.78,10.833-31.6C17.733,24.192,24,0,24,0Z" transform="translate(1368 275)"/>
        <path class="a" d="M24,0s5.822,22.815,12.834,44.25C41.3,57.912,48,70.943,48,77c0,15.295-10.745,24-24,24S0,92.352,0,77c0-5.957,6.335-17.78,10.833-31.6C17.733,24.192,24,0,24,0Z" transform="translate(1425 200)"/>
        <path class="b" d="M24,0s5.822,22.815,12.834,44.25C41.3,57.912,48,70.943,48,77c0,15.295-10.745,24-24,24S0,92.352,0,77c0-5.957,6.335-17.78,10.833-31.6C17.733,24.192,24,0,24,0Z" transform="translate(1425 313)"/>
        <path class="a" d="M24,0s5.822,22.815,12.834,44.25C41.3,57.912,48,70.943,48,77c0,15.295-10.745,24-24,24S0,92.352,0,77c0-5.957,6.335-17.78,10.833-31.6C17.733,24.192,24,0,24,0Z" transform="translate(1482 162)"/>
        <path class="b" d="M24,0s5.822,22.815,12.834,44.25C41.3,57.912,48,70.943,48,77c0,15.295-10.745,24-24,24S0,92.352,0,77c0-5.957,6.335-17.78,10.833-31.6C17.733,24.192,24,0,24,0Z" transform="translate(1482 275)"/>
        <path class="a" d="M24,0s5.822,22.815,12.834,44.25C41.3,57.912,48,70.943,48,77c0,15.295-10.745,24-24,24S0,92.352,0,77c0-5.957,6.335-17.78,10.833-31.6C17.733,24.192,24,0,24,0Z" transform="translate(1539 200)"/>
        <path class="b" d="M24,0s5.822,22.815,12.834,44.25C41.3,57.912,48,70.943,48,77c0,15.295-10.745,24-24,24S0,92.352,0,77c0-5.957,6.335-17.78,10.833-31.6C17.733,24.192,24,0,24,0Z" transform="translate(1539 313)"/>
    </g>
</svg>