<svg xmlns="http://www.w3.org/2000/svg" xmlns:xlink="http://www.w3.org/1999/xlink" viewBox="0 0 385.636 218.941"><defs><style>.a{fill:url(#a);}.b{fill:url(#b);}</style><linearGradient id="a" x1="0.5" x2="0.5" y2="1" gradientUnits="objectBoundingBox"><stop offset="0" stop-color="#90fffa"/><stop offset="1" stop-color="#61ceff" stop-opacity="0"/></linearGradient><linearGradient id="b" x1="0.5" x2="0.5" y2="1" gradientUnits="objectBoundingBox"><stop offset="0" stop-color="#5dd8ff"/><stop offset="1" stop-color="#54ffe8" stop-opacity="0"/></linearGradient></defs><g transform="translate(-514 -487)"><path class="a" d="M127.358,288.929c.722-17.173,9.7-73.972,67.514-91.343s86.454,27.968,86.454,27.968,20.131-73.186,87.2-74.983c108.375.835,98.9,159,98.9,159l-340.068,7.186S126.636,306.1,127.358,288.929Z" transform="translate(432 389.187)"/><g transform="translate(-854 325)"><path class="b" d="M17.9,0s4.344,17.021,9.575,33.012c3.334,10.192,8.33,19.914,8.33,24.432,0,11.41-8.016,17.9-17.9,17.9S0,68.9,0,57.444C0,53,4.726,44.18,8.082,33.868,13.229,18.048,17.9,0,17.9,0Z" transform="translate(1368 162)"/><path class="b" d="M17.9,0s4.344,17.021,9.575,33.012c3.334,10.192,8.33,19.914,8.33,24.432,0,11.41-8.016,17.9-17.9,17.9S0,68.9,0,57.444C0,53,4.726,44.18,8.082,33.868,13.229,18.048,17.9,0,17.9,0Z" transform="translate(1368 246.302)"/><path class="b" d="M17.9,0s4.344,17.021,9.575,33.012c3.334,10.192,8.33,19.914,8.33,24.432,0,11.41-8.016,17.9-17.9,17.9S0,68.9,0,57.444C0,53,4.726,44.18,8.082,33.868,13.229,18.048,17.9,0,17.9,0Z" transform="translate(1410.524 190.349)"/><path class="b" d="M17.9,0s4.344,17.021,9.575,33.012c3.334,10.192,8.33,19.914,8.33,24.432,0,11.41-8.016,17.9-17.9,17.9S0,68.9,0,57.444C0,53,4.726,44.18,8.082,33.868,13.229,18.048,17.9,0,17.9,0Z" transform="translate(1410.524 274.651)"/><path class="b" d="M17.9,0s4.344,17.021,9.575,33.012c3.334,10.192,8.33,19.914,8.33,24.432,0,11.41-8.016,17.9-17.9,17.9S0,68.9,0,57.444C0,53,4.726,44.18,8.082,33.868,13.229,18.048,17.9,0,17.9,0Z" transform="translate(1453.048 162)"/><path class="b" d="M17.9,0s4.344,17.021,9.575,33.012c3.334,10.192,8.33,19.914,8.33,24.432,0,11.41-8.016,17.9-17.9,17.9S0,68.9,0,57.444C0,53,4.726,44.18,8.082,33.868,13.229,18.048,17.9,0,17.9,0Z" transform="translate(1453.048 246.302)"/><path class="b" d="M17.9,0s4.344,17.021,9.575,33.012c3.334,10.192,8.33,19.914,8.33,24.432,0,11.41-8.016,17.9-17.9,17.9S0,68.9,0,57.444C0,53,4.726,44.18,8.082,33.868,13.229,18.048,17.9,0,17.9,0Z" transform="translate(1495.571 190.349)"/><path class="b" d="M17.9,0s4.344,17.021,9.575,33.012c3.334,10.192,8.33,19.914,8.33,24.432,0,11.41-8.016,17.9-17.9,17.9S0,68.9,0,57.444C0,53,4.726,44.18,8.082,33.868,13.229,18.048,17.9,0,17.9,0Z" transform="translate(1495.571 274.651)"/></g></g></svg>