<svg width="353" height="200" viewBox="0 0 353 200" fill="none" xmlns="http://www.w3.org/2000/svg">
<g clip-path="url(#clip0)">
<path d="M41.434 174.582C42.0935 158.895 50.2948 107.01 103.107 91.1414C155.92 75.2732 182.082 116.69 182.082 116.69C182.082 116.69 200.471 49.8353 261.738 48.1938C360.737 48.9565 352.082 200.003 352.082 200.003H41.434C41.434 200.003 40.7745 190.268 41.434 174.582Z" fill="url(#paint0_linear)"/>
<path d="M16.3514 0C16.3514 0 20.3196 15.5485 25.0981 30.1561C28.1437 39.4663 32.7074 48.3473 32.7074 52.4744C32.7074 62.8973 25.3849 68.8259 16.356 68.8259C7.32709 68.8259 0 62.9393 0 52.4744C0 48.4149 4.31714 40.3579 7.38281 30.938C12.0845 16.4866 16.3514 0 16.3514 0Z" fill="url(#paint1_linear)"/>
<path d="M16.3514 77.0089C16.3514 77.0089 20.3196 92.5574 25.0981 107.165C28.1437 116.475 32.7074 125.356 32.7074 129.483C32.7074 139.906 25.3849 145.835 16.356 145.835C7.32709 145.835 0 139.948 0 129.483C0 125.424 4.31714 117.367 7.38281 107.947C12.0845 93.4955 16.3514 77.0089 16.3514 77.0089Z" fill="url(#paint2_linear)"/>
<path d="M55.1966 25.8965C55.1966 25.8965 59.1648 41.445 63.9433 56.0526C66.9889 65.3628 71.5526 74.2438 71.5526 78.3709C71.5526 88.7938 64.2301 94.7223 55.2012 94.7223C46.1723 94.7223 38.8452 88.8358 38.8452 78.3709C38.8452 74.3114 43.1624 66.2544 46.228 56.8345C50.9297 42.3831 55.1966 25.8965 55.1966 25.8965Z" fill="url(#paint3_linear)"/>
<path d="M55.1966 102.905C55.1966 102.905 59.1648 118.454 63.9433 133.061C66.9889 142.372 71.5526 151.253 71.5526 155.38C71.5526 165.803 64.2301 171.731 55.2012 171.731C46.1723 171.731 38.8452 165.845 38.8452 155.38C38.8452 151.32 43.1624 143.263 46.228 133.843C50.9297 119.392 55.1966 102.905 55.1966 102.905Z" fill="url(#paint4_linear)"/>
<path d="M94.0417 0C94.0417 0 98.0099 15.5485 102.788 30.1561C105.834 39.4663 110.398 48.3473 110.398 52.4744C110.398 62.8973 103.075 68.8259 94.0463 68.8259C85.0174 68.8259 77.6903 62.9393 77.6903 52.4744C77.6903 48.4149 82.0075 40.3579 85.0731 30.938C89.7748 16.4866 94.0417 0 94.0417 0Z" fill="url(#paint5_linear)"/>
<path d="M94.0417 77.0089C94.0417 77.0089 98.0099 92.5574 102.788 107.165C105.834 116.475 110.398 125.356 110.398 129.483C110.398 139.906 103.075 145.835 94.0463 145.835C85.0174 145.835 77.6903 139.948 77.6903 129.483C77.6903 125.424 82.0075 117.367 85.0731 107.947C89.7748 93.4955 94.0417 77.0089 94.0417 77.0089Z" fill="url(#paint6_linear)"/>
<path d="M132.886 25.8965C132.886 25.8965 136.854 41.445 141.633 56.0526C144.678 65.3628 149.242 74.2438 149.242 78.3709C149.242 88.7938 141.92 94.7223 132.891 94.7223C123.862 94.7223 116.535 88.8358 116.535 78.3709C116.535 74.3114 120.852 66.2544 123.917 56.8345C128.619 42.3831 132.886 25.8965 132.886 25.8965Z" fill="url(#paint7_linear)"/>
<path d="M132.886 102.905C132.886 102.905 136.854 118.454 141.633 133.061C144.678 142.372 149.242 151.253 149.242 155.38C149.242 165.803 141.92 171.731 132.891 171.731C123.862 171.731 116.535 165.845 116.535 155.38C116.535 151.32 120.852 143.263 123.917 133.843C128.619 119.392 132.886 102.905 132.886 102.905Z" fill="url(#paint8_linear)"/>
</g>
<defs>
<linearGradient id="paint0_linear" x1="196.707" y1="48.1938" x2="196.707" y2="200.003" gradientUnits="userSpaceOnUse">
<stop stop-color="#90FFFA"/>
<stop offset="1" stop-color="#61CEFF" stop-opacity="0"/>
</linearGradient>
<linearGradient id="paint1_linear" x1="16.3537" y1="0" x2="16.3537" y2="68.8259" gradientUnits="userSpaceOnUse">
<stop stop-color="#5DD8FF"/>
<stop offset="1" stop-color="#54FFE8" stop-opacity="0"/>
</linearGradient>
<linearGradient id="paint2_linear" x1="16.3537" y1="77.0089" x2="16.3537" y2="145.835" gradientUnits="userSpaceOnUse">
<stop stop-color="#5DD8FF"/>
<stop offset="1" stop-color="#54FFE8" stop-opacity="0"/>
</linearGradient>
<linearGradient id="paint3_linear" x1="55.1989" y1="25.8965" x2="55.1989" y2="94.7223" gradientUnits="userSpaceOnUse">
<stop stop-color="#5DD8FF"/>
<stop offset="1" stop-color="#54FFE8" stop-opacity="0"/>
</linearGradient>
<linearGradient id="paint4_linear" x1="55.1989" y1="102.905" x2="55.1989" y2="171.731" gradientUnits="userSpaceOnUse">
<stop stop-color="#5DD8FF"/>
<stop offset="1" stop-color="#54FFE8" stop-opacity="0"/>
</linearGradient>
<linearGradient id="paint5_linear" x1="94.044" y1="0" x2="94.044" y2="68.8259" gradientUnits="userSpaceOnUse">
<stop stop-color="#5DD8FF"/>
<stop offset="1" stop-color="#54FFE8" stop-opacity="0"/>
</linearGradient>
<linearGradient id="paint6_linear" x1="94.044" y1="77.0089" x2="94.044" y2="145.835" gradientUnits="userSpaceOnUse">
<stop stop-color="#5DD8FF"/>
<stop offset="1" stop-color="#54FFE8" stop-opacity="0"/>
</linearGradient>
<linearGradient id="paint7_linear" x1="132.888" y1="25.8965" x2="132.888" y2="94.7223" gradientUnits="userSpaceOnUse">
<stop stop-color="#5DD8FF"/>
<stop offset="1" stop-color="#54FFE8" stop-opacity="0"/>
</linearGradient>
<linearGradient id="paint8_linear" x1="132.888" y1="102.905" x2="132.888" y2="171.731" gradientUnits="userSpaceOnUse">
<stop stop-color="#5DD8FF"/>
<stop offset="1" stop-color="#54FFE8" stop-opacity="0"/>
</linearGradient>
<clipPath id="clip0">
<rect width="352.274" height="200" fill="white"/>
</clipPath>
</defs>
</svg>
