<svg width="178" height="200" viewBox="0 0 178 200" fill="none" xmlns="http://www.w3.org/2000/svg">
<path d="M53.9351 35.7895C63.8643 35.7895 71.9135 27.7777 71.9135 17.8947C71.9135 8.01175 63.8643 0 53.9351 0C44.006 0 35.9568 8.01175 35.9568 17.8947C35.9568 27.7777 44.006 35.7895 53.9351 35.7895Z" fill="url(#paint0_linear)"/>
<path d="M17.9784 90.3258C27.9075 90.3258 35.9567 82.314 35.9567 72.4311C35.9567 62.5481 27.9075 54.5363 17.9784 54.5363C8.04918 54.5363 0 62.5481 0 72.4311C0 82.314 8.04918 90.3258 17.9784 90.3258Z" fill="url(#paint1_linear)"/>
<path d="M17.9784 199.398C27.9075 199.398 35.9567 191.387 35.9567 181.504C35.9567 171.621 27.9075 163.609 17.9784 163.609C8.04918 163.609 0 171.621 0 181.504C0 191.387 8.04918 199.398 17.9784 199.398Z" fill="url(#paint2_linear)"/>
<path d="M53.9351 144.862C63.8643 144.862 71.9135 136.85 71.9135 126.967C71.9135 117.084 63.8643 109.073 53.9351 109.073C44.006 109.073 35.9568 117.084 35.9568 126.967C35.9568 136.85 44.006 144.862 53.9351 144.862Z" fill="url(#paint3_linear)"/>
<path d="M124.136 35.7895C134.065 35.7895 142.115 27.7777 142.115 17.8947C142.115 8.01175 134.065 0 124.136 0C114.207 0 106.158 8.01175 106.158 17.8947C106.158 27.7777 114.207 35.7895 124.136 35.7895Z" fill="url(#paint4_linear)"/>
<path d="M88.1795 90.3258C98.1087 90.3258 106.158 82.314 106.158 72.4311C106.158 62.5481 98.1087 54.5363 88.1795 54.5363C78.2504 54.5363 70.2012 62.5481 70.2012 72.4311C70.2012 82.314 78.2504 90.3258 88.1795 90.3258Z" fill="url(#paint5_linear)"/>
<path d="M88.1795 199.398C98.1087 199.398 106.158 191.387 106.158 181.504C106.158 171.621 98.1087 163.609 88.1795 163.609C78.2504 163.609 70.2012 171.621 70.2012 181.504C70.2012 191.387 78.2504 199.398 88.1795 199.398Z" fill="url(#paint6_linear)"/>
<path d="M158.381 90.3258C168.31 90.3258 176.359 82.314 176.359 72.4311C176.359 62.5481 168.31 54.5363 158.381 54.5363C148.452 54.5363 140.402 62.5481 140.402 72.4311C140.402 82.314 148.452 90.3258 158.381 90.3258Z" fill="url(#paint7_linear)"/>
<path d="M158.381 199.398C168.31 199.398 176.359 191.387 176.359 181.504C176.359 171.621 168.31 163.609 158.381 163.609C148.452 163.609 140.402 171.621 140.402 181.504C140.402 191.387 148.452 199.398 158.381 199.398Z" fill="url(#paint8_linear)"/>
<path d="M124.136 144.862C134.065 144.862 142.115 136.85 142.115 126.967C142.115 117.084 134.065 109.073 124.136 109.073C114.207 109.073 106.158 117.084 106.158 126.967C106.158 136.85 114.207 144.862 124.136 144.862Z" fill="url(#paint9_linear)"/>
<defs>
<linearGradient id="paint0_linear" x1="53.9351" y1="0" x2="53.9351" y2="35.7895" gradientUnits="userSpaceOnUse">
<stop stop-color="white"/>
<stop offset="1" stop-color="white" stop-opacity="0"/>
</linearGradient>
<linearGradient id="paint1_linear" x1="17.9784" y1="54.5363" x2="17.9784" y2="90.3258" gradientUnits="userSpaceOnUse">
<stop stop-color="white"/>
<stop offset="1" stop-color="white" stop-opacity="0"/>
</linearGradient>
<linearGradient id="paint2_linear" x1="17.9784" y1="163.609" x2="17.9784" y2="199.398" gradientUnits="userSpaceOnUse">
<stop stop-color="white"/>
<stop offset="1" stop-color="white" stop-opacity="0"/>
</linearGradient>
<linearGradient id="paint3_linear" x1="53.9351" y1="109.073" x2="53.9351" y2="144.862" gradientUnits="userSpaceOnUse">
<stop stop-color="white"/>
<stop offset="1" stop-color="white" stop-opacity="0"/>
</linearGradient>
<linearGradient id="paint4_linear" x1="124.136" y1="0" x2="124.136" y2="35.7895" gradientUnits="userSpaceOnUse">
<stop stop-color="white"/>
<stop offset="1" stop-color="white" stop-opacity="0"/>
</linearGradient>
<linearGradient id="paint5_linear" x1="88.1795" y1="54.5363" x2="88.1795" y2="90.3258" gradientUnits="userSpaceOnUse">
<stop stop-color="white"/>
<stop offset="1" stop-color="white" stop-opacity="0"/>
</linearGradient>
<linearGradient id="paint6_linear" x1="88.1795" y1="163.609" x2="88.1795" y2="199.398" gradientUnits="userSpaceOnUse">
<stop stop-color="white"/>
<stop offset="1" stop-color="white" stop-opacity="0"/>
</linearGradient>
<linearGradient id="paint7_linear" x1="158.381" y1="54.5363" x2="158.381" y2="90.3258" gradientUnits="userSpaceOnUse">
<stop stop-color="white"/>
<stop offset="1" stop-color="white" stop-opacity="0"/>
</linearGradient>
<linearGradient id="paint8_linear" x1="158.381" y1="163.609" x2="158.381" y2="199.398" gradientUnits="userSpaceOnUse">
<stop stop-color="white"/>
<stop offset="1" stop-color="white" stop-opacity="0"/>
</linearGradient>
<linearGradient id="paint9_linear" x1="124.136" y1="109.073" x2="124.136" y2="144.862" gradientUnits="userSpaceOnUse">
<stop stop-color="white"/>
<stop offset="1" stop-color="white" stop-opacity="0"/>
</linearGradient>
</defs>
</svg>
