<svg width="250" height="265" viewBox="0 0 250 265" fill="none" xmlns="http://www.w3.org/2000/svg">
<g clip-path="url(#clip0)">
<path d="M0.00109863 0.00178591H139.691C139.691 0.00178591 199.107 -0.97776 208.63 38.2787C215.929 85.8123 165.672 88.8771 167.933 89.6791C232.15 78.3995 249.182 119.391 249.993 139.014C249.993 204.876 161.609 198.781 161.609 198.781H0.00109863V0.00178591Z" fill="url(#paint0_linear)"/>
<path d="M-0.00146484 264.389H52.9094C52.9094 264.389 128.093 265.48 140.142 222.092C149.378 169.564 85.7841 166.184 88.6448 165.291C169.903 177.749 191.455 132.456 192.481 110.771C192.481 37.9888 80.6419 44.7242 80.6419 44.7242H16.8859L-0.00146484 264.389Z" fill="url(#paint1_linear)"/>
</g>
<defs>
<linearGradient id="paint0_linear" x1="101.498" y1="93.6954" x2="252.849" y2="58.553" gradientUnits="userSpaceOnUse">
<stop stop-color="white" stop-opacity="0"/>
<stop offset="1" stop-color="white"/>
</linearGradient>
<linearGradient id="paint1_linear" x1="-0.244413" y1="133.928" x2="212.378" y2="153.705" gradientUnits="userSpaceOnUse">
<stop offset="0.0565777" stop-color="white" stop-opacity="0"/>
<stop offset="0.833333" stop-color="white"/>
</linearGradient>
<clipPath id="clip0">
<rect width="250" height="264.391" fill="white"/>
</clipPath>
</defs>
</svg>
