<svg xmlns="http://www.w3.org/2000/svg" xmlns:xlink="http://www.w3.org/1999/xlink" viewBox="0 0 160.534 169.775"><defs><style>.a{fill:url(#a);}.b{fill:url(#b);}</style><linearGradient id="a" x1="0.406" y1="0.471" x2="1.023" y2="0.357" gradientUnits="objectBoundingBox"><stop offset="0" stop-color="#fff" stop-opacity="0"/><stop offset="1" stop-color="#fff"/></linearGradient><linearGradient id="b" x1="0" y1="0.485" x2="1.103" y2="0.5" xlink:href="#a"/></defs><g transform="translate(-999.498 -97.356)"><path class="a" d="M147.4,45.357H237.1s38.153-.629,44.268,24.579c4.687,30.523-27.585,32.491-26.133,33.006,41.236-7.243,52.173,19.079,52.694,31.68,0,42.292-56.755,38.378-56.755,38.378H147.4Z" transform="translate(852.099 52)"/><path class="b" d="M226.934,186.516H260.91s48.278.7,56.015-27.161c5.931-33.73-34.905-35.9-33.068-36.474,52.179,8,66.018-21.084,66.677-35.009,0-46.736-71.816-42.411-71.816-42.411H226.934Z" transform="translate(772.563 80.614)"/></g></svg>